<?xml version="1.0" encoding="UTF-8" standalone="no"?>
<svg
   xmlns:dc="http://purl.org/dc/elements/1.1/"
   xmlns:cc="http://creativecommons.org/ns#"
   xmlns:rdf="http://www.w3.org/1999/02/22-rdf-syntax-ns#"
   xmlns:svg="http://www.w3.org/2000/svg"
   xmlns="http://www.w3.org/2000/svg"
   viewBox="0 0 499.99999 108.7243"
   height="108.7243"
   width="500"
   xml:space="preserve"
   id="svg2"
   version="1.1"><metadata
     id="metadata8"><rdf:RDF><cc:Work
         rdf:about=""><dc:format>image/svg+xml</dc:format><dc:type
           rdf:resource="http://purl.org/dc/dcmitype/StillImage" /><dc:title></dc:title></cc:Work></rdf:RDF></metadata><defs
     id="defs6"><clipPath
       id="clipPath20"
       clipPathUnits="userSpaceOnUse"><path
         id="path18"
         d="M 0,1080 H 1920 V 0 H 0 Z" /></clipPath><clipPath
       id="clipPath74"
       clipPathUnits="userSpaceOnUse"><path
         id="path72"
         d="M 0,0 H 1920 V 1080 H 0 Z" /></clipPath><clipPath
       id="clipPath138"
       clipPathUnits="userSpaceOnUse"><path
         id="path136"
         d="M 0,0 H 1920 V 1080 H 0 Z" /></clipPath><clipPath
       id="clipPath154"
       clipPathUnits="userSpaceOnUse"><path
         id="path152"
         d="M 0,0 H 1920 V 1080 H 0 Z" /></clipPath></defs><g
     transform="matrix(1.3333333,0,0,-1.3333333,-405.89295,779.12478)"
     id="g10"><g
       transform="matrix(1.7161215,0,0,1.7161215,-384.88708,-22.368335)"
       id="g68"><g
         clip-path="url(#clipPath74)"
         id="g70"><g
           transform="translate(459.2375,338.6107)"
           id="g76"><path
             id="path78"
             style="fill:#ffffff;fill-opacity:1;fill-rule:nonzero;stroke:none"
             d="m 0,0 h 2.185 c -1.5,-1.63 -3.673,-3.989 -4.462,-4.845 -0.823,0.831 -3.158,3.2 -4.78,4.845 z m -26.523,0 h 2.256 c -1.532,-1.633 -3.753,-3.996 -4.551,-4.847 -0.812,0.839 -3.111,3.207 -4.705,4.847 z M 24.672,-5.249 C 24.292,-4.838 21.454,-1.763 19.826,0 h 6.281 L 11.185,14.919 c 0,0 -12.324,-11.726 -13.443,-12.789 -1.126,1.058 -13.565,12.782 -13.565,12.782 0,0 -11.893,-11.69 -13.002,-12.778 -1.141,1.059 -13.795,12.792 -13.795,12.792 L -56.878,0 h 6.14 c -1.814,-1.87 -6.834,-7.042 -6.834,-7.042 h 11.975 V -32.59 h 1.79 v 27.341 h -9.529 c 1.814,1.869 6.834,7.041 6.834,7.041 h -6.188 c 2.12,2.221 9.183,9.611 10.145,10.62 1.024,-0.952 9.008,-8.353 11.455,-10.62 h -6.667 l 6.833,-7.041 h -9.644 V -32.59 h 1.792 v 25.559 l 10.383,-0.011 8.267,8.834 h -6.49 c 2.288,2.248 9.844,9.676 10.819,10.634 0.997,-0.939 8.881,-8.37 11.285,-10.634 h -6.83 L -2.234,-7.443 6.27,1.792 H -0.016 C 2.361,4.05 10.15,11.462 11.155,12.417 12.134,11.439 19.543,4.031 21.782,1.792 h -6.048 l 8.153,-8.834 137.057,0.004 v 1.792 c 0,0 -135.494,-0.003 -136.272,-0.003" /></g><g
           transform="translate(432.4377,321.7633)"
           id="g80"><path
             id="path82"
             style="fill:#ffffff;fill-opacity:1;fill-rule:nonzero;stroke:none"
             d="m 0,0 -2.68,-6.904 c 0.851,-0.062 1.701,-0.094 2.554,-0.094 0.882,0 1.764,0.065 2.648,0.094 z M -0.095,6.62 C 0.441,6.494 1.006,6.431 1.544,6.431 c 0.504,0 1.041,0.063 1.543,0.189 2.964,-8.7 6.589,-17.525 8.544,-22.128 -0.975,0.155 -1.985,0.189 -2.961,0.189 -1.042,0 -2.367,0 -3.344,-0.189 -0.914,3.278 -1.67,5.265 -2.018,6.208 -1.071,0.034 -2.142,0.096 -3.278,0.096 -1.164,0 -2.395,-0.031 -3.624,-0.096 -0.535,-1.542 -1.354,-3.875 -1.892,-6.208 -0.598,0.094 -1.103,0.189 -1.734,0.189 -0.314,0 -1.07,0 -1.765,-0.189 1.924,4.068 6.714,15.919 8.89,22.128" /></g><g
           transform="translate(450.6572,316.7223)"
           id="g84"><path
             id="path86"
             style="fill:#ffffff;fill-opacity:1;fill-rule:nonzero;stroke:none"
             d="m 0,0 c 0,-5.139 0,-6.179 0.061,-8.23 0.286,-0.03 0.601,-0.063 0.947,-0.063 2.552,0 3.627,1.894 3.627,4.257 C 4.635,-0.725 2.93,0 0,0 m 0,2.078 c 0.22,-0.03 0.409,-0.03 0.63,-0.03 1.829,0 3.688,0.977 3.688,3.751 0,2.457 -1.166,3.562 -3.593,3.562 -0.189,0 -0.378,0 -0.694,-0.033 C 0.031,8.95 0,7.12 0,6.713 Z M 4.822,1.197 c 1.261,-0.22 5.39,-0.915 5.39,-5.454 0,-3.816 -3.246,-6.21 -7.817,-6.21 -0.851,0 -3.372,0.19 -4.697,0.19 -1.008,0 -2.081,-0.096 -3.152,-0.19 0.189,2.615 0.253,6.021 0.253,8.762 0,3.028 0,6.086 -0.096,9.109 -0.063,2.02 -0.189,3.06 -0.283,4.005 0.724,-0.158 1.733,-0.189 2.709,-0.189 1.546,0 3.627,0.189 5.675,0.189 3.784,0 6.841,-1.764 6.841,-5.169 0,-3.721 -3.468,-4.574 -4.823,-4.885 z" /></g><g
           transform="translate(487.0774,327.9422)"
           id="g88"><path
             id="path90"
             style="fill:#ffffff;fill-opacity:1;fill-rule:nonzero;stroke:none"
             d="m 0,0 c -0.567,-0.504 -1.64,-1.355 -2.806,-2.584 -1.766,-1.862 -4.413,-4.698 -5.83,-6.245 l 5.641,-8.131 c 0.599,-0.852 2.554,-3.499 3.184,-4.192 v -0.535 c -1.168,0.157 -2.365,0.187 -3.562,0.187 -1.168,0 -1.955,-0.063 -2.993,-0.187 -0.222,0.441 -0.508,0.977 -0.853,1.481 l -5.328,7.818 c 0.065,-5.737 0.065,-6.023 0.191,-9.299 -0.947,0.124 -1.892,0.187 -2.837,0.187 -0.977,0 -1.892,-0.091 -2.871,-0.187 0.128,1.355 0.254,2.869 0.254,4.286 v 12.325 c 0,0.945 -0.096,3.69 -0.284,5.265 C -17.085,0.063 -16.077,0 -15.036,0 c 0.882,0 1.796,0.063 2.68,0.189 -0.254,-4.32 -0.254,-7.282 -0.254,-9.898 3.942,4.444 6.116,6.842 8.292,9.898 C -3.75,0.126 -2.774,0 -2.081,0 c 0.661,0 1.482,0.126 2.016,0.189 z" /></g><g
           transform="translate(495.3445,319.283)"
           id="g92"><path
             id="path94"
             style="fill:#ffffff;fill-opacity:1;fill-rule:nonzero;stroke:none"
             d="m 0,0 -2.251,-5.799 c 0.714,-0.052 1.428,-0.081 2.142,-0.081 0.743,0 1.484,0.053 2.225,0.081 z M -0.081,5.561 C 0.371,5.454 0.845,5.404 1.297,5.404 c 0.423,0 0.873,0.05 1.295,0.157 2.491,-7.31 5.535,-14.721 7.178,-18.589 -0.821,0.133 -1.669,0.157 -2.49,0.157 -0.875,0 -1.984,0 -2.806,-0.157 -0.769,2.751 -1.404,4.421 -1.694,5.216 -0.902,0.028 -1.8,0.08 -2.756,0.08 -0.978,0 -2.011,-0.027 -3.044,-0.08 -0.451,-1.297 -1.137,-3.257 -1.589,-5.216 -0.504,0.08 -0.926,0.157 -1.455,0.157 -0.266,0 -0.903,0 -1.484,-0.157 1.616,3.417 5.64,13.373 7.467,18.589" /></g><g
           transform="translate(510.8875,316.1305)"
           id="g96"><path
             id="path98"
             style="fill:#ffffff;fill-opacity:1;fill-rule:nonzero;stroke:none"
             d="m 0,0 c 0.212,-0.026 0.476,-0.026 0.792,-0.026 0.981,0 3.707,0 3.707,3.522 0,3.019 -1.933,3.178 -3.441,3.178 -0.345,0 -0.662,0 -1.005,-0.054 z M 4.87,-0.847 8.974,-7.332 C 9.4,-7.996 10.35,-9.293 10.882,-9.715 L 10.8,-9.876 c -0.9,0.134 -1.826,0.161 -2.752,0.161 -1.141,0 -1.775,-0.056 -2.781,-0.161 -0.105,0.239 -0.557,1.299 -1.535,2.784 L 0.131,-1.509 C 0.104,-1.481 0.077,-1.456 0.025,-1.456 0,-1.456 0,-1.535 0,-1.614 c 0,-2.489 0.025,-3.947 0.077,-5.904 0.027,-0.795 0.027,-1.591 0.135,-2.358 -0.742,0.105 -1.591,0.161 -2.358,0.161 -0.689,0 -1.748,-0.082 -2.408,-0.161 0.238,2.435 0.211,4.926 0.211,10.247 0,4.103 0,6.567 -0.211,8.129 1.162,-0.105 2.222,-0.158 2.886,-0.158 1.638,0 3.308,0.158 4.95,0.158 0.954,0 5.771,0 5.771,-4.712 0,-3.153 -2.674,-4.45 -4.183,-4.635" /></g><g
           transform="translate(522.96,320.4224)"
           id="g100"><path
             id="path102"
             style="fill:#ffffff;fill-opacity:1;fill-rule:nonzero;stroke:none"
             d="M 0,0 C 0,1.693 -0.131,3.151 -0.264,4.21 0.583,4.077 1.428,4.05 2.303,4.05 3.125,4.05 3.919,4.103 4.712,4.21 4.528,2.276 4.421,0.051 4.421,-1.036 v -8.602 c 0,-0.771 0.028,-1.564 0.053,-2.331 1.72,0 4.609,0 6.223,0.343 -0.105,-0.635 -0.134,-0.952 -0.134,-1.271 0,-0.399 0.081,-0.899 0.134,-1.269 -1.324,0.105 -3.044,0.212 -4.527,0.212 -1.854,0 -4,-0.135 -6.408,-0.212 0.157,1.402 0.238,2.937 0.238,4.819 z" /></g><g
           transform="translate(541.1096,323.2457)"
           id="g104"><path
             id="path106"
             style="fill:#ffffff;fill-opacity:1;fill-rule:nonzero;stroke:none"
             d="M 0,0 C 0,1.766 -0.157,3.751 -0.252,4.885 0.693,4.759 1.672,4.696 2.711,4.696 4.003,4.696 5.108,4.823 5.58,4.885 5.36,1.954 5.36,0 5.36,-3.879 7.031,-3.94 8.386,-3.971 9.807,-3.971 c 1.351,0 2.771,0 4.569,0.092 v 4.037 c 0,1.293 -0.128,3.499 -0.252,4.727 0.66,-0.062 2.016,-0.189 2.993,-0.189 1.071,0 2.426,0.127 2.899,0.189 -0.281,-2.711 -0.281,-9.077 -0.281,-12.198 0,-3.814 0,-7.063 0.314,-9.678 -0.977,0.126 -1.955,0.189 -2.901,0.189 -1.039,0 -2.081,-0.063 -3.087,-0.189 0.124,0.79 0.315,2.02 0.315,4.318 v 6.116 c -1.357,0.063 -2.902,0.096 -4.604,0.096 -1.64,0 -3.278,-0.033 -4.412,-0.096 v -6.651 c 0,-1.325 0.093,-2.964 0.189,-3.783 -0.567,0.063 -1.735,0.189 -2.871,0.189 -0.69,0 -2.016,-0.063 -2.961,-0.189 0.157,1.576 0.283,3.027 0.283,5.675 z" /></g><g
           transform="translate(563.7263,321.1367)"
           id="g108"><path
             id="path110"
             style="fill:#ffffff;fill-opacity:1;fill-rule:nonzero;stroke:none"
             d="M 0,0 C 0,1.19 -0.081,2.382 -0.238,3.496 2.065,3.389 4.264,3.284 5.904,3.284 c 1.456,0 2.834,0.052 4.688,0.212 -0.079,-0.398 -0.134,-0.797 -0.134,-1.221 0,-0.448 0.027,-0.899 0.134,-1.323 C 8.843,1.269 6.328,1.299 4.581,1.299 4.526,0.343 4.5,-0.585 4.5,-1.537 V -4.24 c 2.146,0 3.867,0 5.906,0.293 -0.081,-0.422 -0.133,-0.845 -0.133,-1.271 0,-0.422 0.079,-0.845 0.133,-1.244 -1.961,0.213 -3.469,0.213 -5.906,0.213 v -5.272 c 0,-0.396 0.026,-0.767 0.053,-1.138 1.325,0 4.131,0.03 5.96,0.399 -0.081,-0.451 -0.135,-0.875 -0.135,-1.246 0,-0.448 0.054,-0.9 0.135,-1.376 -1.695,0.16 -4.158,0.214 -5.987,0.214 -1.694,0 -3.414,-0.107 -4.897,-0.214 0.238,1.299 0.343,3.839 0.343,5.293 z" /></g><g
           transform="translate(580.5386,310.3053)"
           id="g112"><path
             id="path114"
             style="fill:#ffffff;fill-opacity:1;fill-rule:nonzero;stroke:none"
             d="m 0,0 c 0,-0.662 0.028,-1.351 0.054,-2.013 0.317,-0.052 0.872,-0.129 1.747,-0.129 1.483,0 3.23,0.29 4.474,1.613 1.696,1.83 1.854,5.057 1.854,6.037 0,1.616 -0.293,4.184 -2.011,5.694 -1.379,1.189 -2.78,1.219 -3.92,1.219 -1.351,0 -1.801,-0.03 -2.117,-0.055 C 0.081,11.812 0,9.744 0,8.845 Z m -4.395,9.214 c 0,1.694 -0.079,3.417 -0.264,5.111 0.821,-0.105 1.643,-0.159 2.462,-0.159 2.038,0 4.052,0.159 6.09,0.159 5.058,0 9.004,-2.965 9.004,-8.843 0,-5.164 -3.233,-9.531 -9.93,-9.531 -0.928,0 -3.629,0.158 -4.343,0.158 -0.478,0 -2.039,-0.028 -3.283,-0.158 0.159,1.746 0.264,3.492 0.264,5.243 z" /></g><g
           transform="translate(600.5312,306.2549)"
           id="g116"><path
             id="path118"
             style="fill:#ffffff;fill-opacity:1;fill-rule:nonzero;stroke:none"
             d="M 0,0 C -0.821,0.107 -1.537,0.159 -2.412,0.159 -3.231,0.159 -4.08,0.107 -4.899,0 c 0.266,2.33 0.266,8.29 0.266,9.557 0,2.755 -0.03,6.196 -0.242,8.819 0.718,-0.105 1.537,-0.158 2.491,-0.158 1.085,0 2.039,0.105 2.409,0.158 C -0.159,15.356 -0.24,11.81 -0.24,8.79 -0.24,6.277 -0.24,2.33 0,0" /></g><g
           transform="translate(617.5574,318.4341)"
           id="g120"><path
             id="path122"
             style="fill:#ffffff;fill-opacity:1;fill-rule:nonzero;stroke:none"
             d="M 0,0 C 0,0.504 -0.133,4.845 -0.346,6.196 0.077,6.089 0.712,6.039 1.136,6.039 c 0.478,0 0.956,0.05 1.432,0.157 C 2.195,3.921 2.092,-3.522 2.092,-6.459 c 0,-1.908 0,-3.84 0.211,-5.72 -0.558,0.08 -1.034,0.157 -1.563,0.157 -0.556,0 -1.059,-0.051 -1.535,-0.157 -0.849,1.166 -1.165,1.535 -3.999,4.871 l -6.779,7.628 v -6.618 c 0,-1.194 0.211,-4.768 0.318,-5.881 -0.476,0.08 -0.954,0.157 -1.428,0.157 -0.531,0 -0.876,-0.077 -1.38,-0.157 0.4,4.871 0.4,6.039 0.4,10.406 0,4.768 0,6.089 -0.188,7.969 0.611,-0.077 1.192,-0.157 1.775,-0.157 0.529,0 1.059,0.08 1.563,0.157 C -7.917,2.808 -2.227,-3.573 0,-6.011 Z" /></g></g></g></g></svg>